<?xml version="1.0" encoding="utf-8"?>
<!-- Generator: Adobe Illustrator 21.0.0, SVG Export Plug-In . SVG Version: 6.00 Build 0)  -->
<svg version="1.1" xmlns="http://www.w3.org/2000/svg" xmlns:xlink="http://www.w3.org/1999/xlink" x="0px" y="0px"
	 viewBox="0 0 270 270" enable-background="new 0 0 270 270" xml:space="preserve">
<g id="Capa_1">
</g>
<g id="Capa_2">
	<circle fill="#E61D2A" cx="135" cy="135" r="135"/>
</g>
<g id="Capa_3">
	<g>
		<g id="g3">
			<path id="path5" fill="#FFFFFF" d="M108.9,159.7c-8.4-5.4-19.7-6.3-38-1.3c-19.5,4.6-26,7.5-34.6,1.6c-3.3-2.9-4.5-7.6-3.6-14.3
				c2-11,7.5-21.5,17.3-33.2c5.5-6.1,10.5-11.3,17.2-13.4c5.1-1.3,4.6,2.7,4,3.3c-0.7,0-1.8,0.1-2.6,0.7c-0.7,0.5-2.6,2.3-2.7,4.6
				c-0.1,3.6,3.5,2.8,5.1,0.9c1.7-2.2,4.2-6.4,2.3-10.3c-0.8-1.4-2.3-2.4-4.1-2.7c-6.1-0.4-11.8,2.6-17.1,5.8
				c-11.5,8-20.7,19.1-25.9,31.2c-3,7.3-5.7,17.8-1.6,26.3c3.2,5.9,9.7,9.1,17.5,8.4c5.5-0.6,12.1-2.3,16.5-3.4
				c4.5-1.1,27.2-8.9,34.7,4.7c0,0,2.5-4.8,8.7-4.9c5.1-0.5,12.5,1.5,17.9,5.4C118.2,166.4,113.2,162.4,108.9,159.7L108.9,159.7z"/>
			<path id="path7" fill="#FFFFFF" d="M73.2,113.9c-4.3-2.8-12.8,2.6-19.7,11.7c-6.3,8.2-9,17.8-6,22.2c4.4,5.2,12.5-2.4,16-6.4
				l0.4-0.5c2.4-2.5,4.2-5.6,5.9-8.5c0,0,1.6-2.7,1.7-2.8c1-0.2,2.2-0.5,3.6-0.9c0,0.1-5.2,8.8-4.7,13.1c0.2,1.3,0,6.1,4.7,7.6
				c6.3,1,11.3-3.8,15.7-8.1c0,0,0.8-0.7,1.2-1.1c-0.1,0.4-0.2,1-0.2,1c-1.8,6.4,0.6,7.7,2.2,8.2c4.7,1.4,10.3-5.4,10.3-5.4
				c-0.1,2.1-0.6,3.9,1.7,5.3c2.1,0.8,4.3-0.4,5.9-1.5c5.9-4.2,10.6-10.7,14.5-16.3h-2.4c0,0-6,8.7-9.9,10.6c0,0-0.7,0.4-1.1,0.1
				c-0.5-0.4-0.3-1.3,0-2c0,0,15.1-26.1,15.1-26.1h-7.1c0,0-0.8,1.3-0.8,1.3c0,0-0.2-0.3-0.2-0.4c-4.4-6.1-14.4,3.3-21.9,14.1
				c-2.9,4.2-6.6,8.9-10.4,12.3c0,0-5.6,5.2-8.1,1.5c-0.9-1.6-0.6-3.8-0.1-5.3c2.8-8,7.7-15.3,13.2-19.6c1.6-1.2,3.2-1.6,4.1-1
				c0.8,0.5,0.9,1.6,0.4,2.4c-1.3,0-2.3,0.3-3.1,1.2c-1.6,1.7-2.2,3.4-1.7,5c2.5,3.6,7.6-3.5,7.4-7.9c-0.1-1.6-0.9-3-2.2-3.8
				c-1.9-1.1-4.7-0.8-6.5,0.1c-2.5,0.9-6.3,4.2-8.6,6.7c-2.9,3.1-7.7,6.6-9.3,6.3C73.4,125.6,77.6,117.1,73.2,113.9L73.2,113.9z
				 M107.5,126.4c1.4-1.9,5.4-7,6.4-7.9c3.3-2.9,4.6-1.6,4.7-0.7c-3.1,5.5-6.7,11.8-10.1,17.5c0,0-1.1,1.6-1.1,1.6
				c-1.5,2.3-3,4.3-5.5,5.7c-0.4,0.1-0.9,0.1-1.3-0.1c-0.5-0.3-0.7-0.8-0.6-1.4C100.1,139.3,101.9,133.9,107.5,126.4L107.5,126.4z
				 M68.8,129.8c0,0-0.1,0.2-0.1,0.2c0,0-3.1,5-3.1,5c-1.9,2.5-4.2,5.6-7.1,7.1c-0.9,0.3-2.1,0.5-2.7-0.3c-1.3-1.5-0.6-3.7-0.1-5.4
				l0.2-0.6c1.5-4.2,4-7.9,6.4-11.3c0,0,0.1,0,0.1,0c0,0,0,0,0,0.1c1.5,2.9,4.3,4.2,6.4,4.8c0,0,0,0,0,0.1
				C68.9,129.5,68.9,129.6,68.8,129.8L68.8,129.8z M71.8,123.8c0,0-1.4,3.2-1.4,3.2c-0.2,0.2-0.5,0.1-0.9,0l-0.6-0.1
				c-1.9-0.6-3.4-1.9-3.8-3.4c-0.6-3,1.9-5.3,3-6.1c1.1-0.7,2.7-1.1,3.7-0.4c0.6,0.7,0.8,1.6,0.8,2.6
				C72.6,120.9,72.2,122.4,71.8,123.8L71.8,123.8z"/>
			<path id="path9" fill="#FFFFFF" d="M161.5,133.4c-0.7-1.5-2.3-2.4-4-2.3c-5.6,0.5-11.1,5.1-14,11.8c-1.5,3.4-2.3,6.2-2.9,10.7
				c1.7-2,5.3-5.3,9.4-7.1c0,0,0.6-4.3,3.4-8.1c1.1-1.6,3.2-4.1,5.6-3.5c2.1,0.7,1.4,6.5-1.4,12.1c-2.1,4.1-5.2,8.2-8.4,11.1
				c-2.8,2.4-7,5.3-10.6,3c-2.3-1.4-3.5-4.2-3.2-7.9c1.1-10.4,5.8-19.2,12.6-29.3c7-9.4,14.7-19,25-24.1c2.1-1.1,4.1-1.3,5.8-0.7
				c0,0-9.7,5.3-14.4,15.2c-1.2,2.5-2.8,5.9-1.2,8.9c0.9,1.6,2.4,1.7,3.6,1.6c5.7-1.3,9.4-6.6,12.4-11.5c1.7-3.7,3.3-7.3,3.3-11.4
				c0-0.5,0-1.2-0.1-1.6c2.7-1.4,8.3,1.1,8.3,1.1c4.3,1.4,13.6,8.5,16.7,9.9c1.5-1.8,4-4.4,5.4-5.8l-2-1.3c-3.3-2-6.7-3.9-10.1-5.8
				c-7.7-4.2-14-2.7-17.2-1.6c-1.3,0.5-2.4,0.8-2.4,0.8c-2.4-2.6-6.3-2.3-9.1-1.6c-10.3,3-19.9,10.2-30.2,22.7
				c-7.5,9.8-12.2,18.3-14.7,26.7c-1.9,5.6-2.5,13.9,2.2,18.8c4,4.2,9.3,3.3,13,1.8c8.1-4,15.4-12.6,19-22.5
				C162.1,140.7,163.1,136.5,161.5,133.4L161.5,133.4z M180.2,102.4c-1.1,12.3-10.6,19.5-13,20.1c-1.4,0.3-3.9-0.3-1.7-5.5
				c3.2-7,8.7-12.9,14.6-15.9C180.2,101.6,180.2,101.9,180.2,102.4L180.2,102.4z"/>
			<path id="path11" fill="#FFFFFF" d="M236.9,103.9c-5.1,2.9-10.5,4.8-16.9,4.2c-1.8,2-3.5,4.1-5.1,6.2c9.1,2.3,18.7-2.8,24-7.7
				c5.7-4.9,8.6-11.1,8.6-11.1S243.2,100.4,236.9,103.9L236.9,103.9z"/>
			<polygon id="polygon13" fill="#FFFFFF" points="139.7,114.2 133,114.2 129.2,120.4 135.9,120.4 			"/>
			<path id="path15" fill="#FFFFFF" d="M219.9,160.3c-0.7,0.5-1.7,0.1-1.4-1c0.9-2.9,4.7-8.7,4.7-8.7l10.5-18.6h-7.2
				c-0.3,0.6-1.1,1.9-1.1,1.9c-0.3-0.6-1.3-1.8-1.7-2.1c-1.8-1.1-4.3-0.6-6.1,0.4c-7.7,4.5-13.4,13.5-17.8,20.4c0,0-4.7,7.8-7.3,8.3
				c-2,0.2-1.8-2.6-1.7-3.2c0.8-4.6,2.6-9,4.4-13c3.7-2.6,8-6,11.9-9.7c8.4-8,15.5-17.2,16.5-19.2c0,0-1.1,0.2-2.4,0.3
				c-6.5,9-19.7,22.1-23.7,24.1c1.8-4.3,13.3-24.7,23.1-34.5l1.5-1.5c2.4-2.3,4.8-4.7,6.8-5.1c0.2,0,0.5,0,0.7,0.5
				c0.1,1.8-0.6,3.1-1.4,4.7l-1.1,2.2c0,0,1.5-0.3,2.5-0.6c1.2-2.2,2.5-4.7,2-7.6c-0.2-0.9-0.8-1.7-1.7-1.8
				c-2.9-0.6-6.1,1.6-8.7,3.4l-0.1,0.1c-13.2,10.3-24.3,25.2-34,45.4c-0.7,0.5-3.4,1.2-3.9,0.9c1-2,2.2-4.6,2.8-7.5
				c0.1-0.8,0.2-1.7,0.2-2.5c0-1.8-0.4-3.4-2-4.6c-1.9-0.9-4.2-0.5-5.7,0.2c-6.9,2.9-12.1,10-15.9,15.9c-2,3.7-4,7.7-4.6,12.3
				c-0.4,3.6,0.4,5.9,2.4,7c2.1,1.1,4.7,0,5.8-0.6c7-3.7,11.9-11.1,15.8-17.9c0.2,0,2.3-0.1,3.9-0.5c0,0,0,0,0.1,0
				c-0.1,0.3-0.9,2.8-0.9,2.8c-2.5,7.2-3.6,12.1-1.3,15c3.3,4.1,8.8-0.1,13.3-5.7c-1,6.7,2.5,7.8,5.2,7.2c3-0.8,6.4-4.1,8-5.7
				c-0.5,2-0.4,5.4,2.4,5.8c1.9,0.4,3.3-0.7,5-1.6c5.9-3.2,12.9-13.9,14.8-17H230C227.4,152.7,224.1,157.8,219.9,160.3L219.9,160.3z
				 M167,159.6c-0.4-0.6-0.5-1.2-0.5-1.8c-0.1-4,4.3-11.3,7.3-15.2c0,0,0,0,0,0c1.3,2.8,4.2,4.6,5.9,5.4
				C177.6,152.8,170.2,163.2,167,159.6L167,159.6z M181,145.8c-0.2,0.1-3.9-1.1-4.6-4.5c-0.6-2.9,1.4-5.2,3.4-6.4
				c0.8-0.7,2.1-0.9,3-0.6c0.9,0.6,1.1,1.6,1.1,2.7c0,0.7-0.1,1.4-0.2,2c0,0,0,0.1,0,0.1C183.1,141.5,182.2,143.8,181,145.8
				L181,145.8z M210.4,158.3c0,0-0.7,0.6-0.7,0.6c-1,0.9-2,1.8-3.2,1.4c-0.3-0.1-0.6-0.6-0.6-0.9c-0.1-2.5,1.1-4.9,2.2-7.2l0.3-0.6
				c3.2-5.3,6.9-11.6,12.3-15.9c0.9-0.7,1.9-1.2,3-0.8c0.2,0.2,0.5,0.6,0.5,1c0,0.1-0.1,0.5-0.2,0.6c-1.5,2.4-3,5-4.4,7.5
				C216.8,148.8,214,153.8,210.4,158.3L210.4,158.3z"/>
		</g>
		<g>
			<g id="circle3">
				<path fill="#FFFFFF" d="M227.7,169.8c-2.1,0-3.8-1.7-3.8-3.8c0-2.1,1.7-3.8,3.8-3.8c2.1,0,3.8,1.7,3.8,3.8
					C231.6,168.1,229.9,169.8,227.7,169.8z M227.7,163c-1.7,0-3,1.4-3,3s1.4,3,3,3s3-1.4,3-3S229.4,163,227.7,163z"/>
			</g>
			<g id="text3175">
				<path fill="#FFFFFF" d="M227.5,165.7c0.2,0,0.4,0,0.5-0.1c0.1-0.1,0.1-0.2,0.1-0.4c0-0.2,0-0.3-0.1-0.4
					c-0.1-0.1-0.2-0.1-0.5-0.1h-0.4v1H227.5 M227.1,166.4v1.5h-1v-4h1.6c0.5,0,0.9,0.1,1.2,0.3c0.2,0.2,0.4,0.5,0.4,0.8
					c0,0.3-0.1,0.5-0.2,0.7c-0.1,0.2-0.3,0.3-0.6,0.4c0.1,0,0.3,0.1,0.4,0.2c0.1,0.1,0.2,0.3,0.3,0.5l0.6,1.1h-1.1l-0.5-1
					c-0.1-0.2-0.2-0.3-0.3-0.4c-0.1-0.1-0.2-0.1-0.4-0.1H227.1"/>
			</g>
		</g>
	</g>
</g>
</svg>
