<?xml version="1.0" encoding="utf-8"?>
<!-- Generator: Adobe Illustrator 22.1.0, SVG Export Plug-In . SVG Version: 6.00 Build 0)  -->
<svg version="1.1" id="Layer_1" xmlns="http://www.w3.org/2000/svg" xmlns:xlink="http://www.w3.org/1999/xlink" x="0px" y="0px"
	 viewBox="0 0 996.1 805.3" style="enable-background:new 0 0 996.1 805.3;" xml:space="preserve">
<style type="text/css">
	.st0{fill:#FFFFFF;}
	.st1{fill:#FF8300;}
	.st2{fill:#2BA756;}
	.st3{fill:#4C9C2E;}
	.st4{fill:url(#SVGID_1_);}
	.st5{fill:#144F89;}
</style>
<g>
	<path class="st0" d="M61.4,402.6C61.4,180.3,245.1,0,471.7,0c226.6,0,410.3,180.3,410.3,402.6c0,222.4-183.7,402.7-410.3,402.7
		C245.1,805.3,61.4,625,61.4,402.6"/>
	<path class="st1" d="M98,404C98,201.1,266.2,36.7,473.7,36.7c207.5,0,375.7,164.5,375.7,367.3c0,202.9-168.2,367.3-375.7,367.3
		C266.2,771.3,98,606.9,98,404"/>
	<g>
		<g>
			<path class="st2" d="M521.6,119.5c-26.6-9.7-49.5-11-69.6-7.6c9.2,6.4,9.7,17,9.7,17s-19-16.4-48.5-3.7
				c-6.1,3.1-12,6.6-17.6,10.2c-34.1,23.1-74,85.6-112.3,83.1c-0.3,0-11.6-0.6-11.8-0.6c2.3,1.1,14.6,8.4,14.9,8.4
				c14,5.4,38.1,18.9,87.1-6.2c54.7-28.1,64.1-59.2,114-62.6c12-0.8,23.2,1.2,33.6,5c37.6,13.7,65,50.9,74.3,68.5c0-0.1,0-0.2,0-0.2
				C595.4,230.6,589.9,144.3,521.6,119.5"/>
			<path class="st3" d="M487.5,157.4c-49.8,3.3-59.3,34.5-114,62.6c-49,25.1-73.1,11.6-87.1,6.2c-0.2,0-12.6-7.2-14.9-8.4
				c0,0,34.8,50.8,96.9,60.7c15.6,2.5,44.1-3,55.6-22.4c1.9,13.9-2,20.4-6.2,25.6c59.4-11.8,92.1-52.5,122.4-61
				c37.8-10.5,55.3,10.1,55.3,10.1c-11.3-21.3-48.9-71.3-99.1-73.6C493.4,157.2,490.5,157.2,487.5,157.4"/>
			
				<linearGradient id="SVGID_1_" gradientUnits="userSpaceOnUse" x1="275.9879" y1="208.9886" x2="600.2105" y2="208.9886" gradientTransform="matrix(0.999 4.560000e-02 -4.560000e-02 0.999 5.6067 -10.3101)">
				<stop  offset="0" style="stop-color:#2BA756"/>
				<stop  offset="1" style="stop-color:#006A46"/>
			</linearGradient>
			<path class="st4" d="M487.5,157.4c-49.8,3.3-59.3,34.5-114,62.6c-49,25.1-73.1,11.6-87.1,6.2c-0.2,0-12.6-7.2-14.9-8.4
				c0,0,34.8,50.8,96.9,60.7c15.6,2.5,44.1-3,55.6-22.4c1.9,13.9-2,20.4-6.2,25.6c59.4-11.8,92.1-52.5,122.4-61
				c37.8-10.5,55.3,10.1,55.3,10.1c-11.3-21.3-48.9-71.3-99.1-73.6C493.4,157.2,490.5,157.2,487.5,157.4"/>
		</g>
	</g>
	<g>
		<path class="st0" d="M252.4,248.1c-23.3-24.6-71.8-28.3-118.1-6.3C113.5,251.7,9.1,305.2,0.9,389.3l-0.4,5.1
			C0.2,401.4,0,408.2,0,415.1c0,125.4,58,235.4,118.2,291c33.1,30.5,60,48.8,83.6,38.3c13.5-6,23.6-19.1,26.8-43.9
			c3.2-24.8,1.4-55.2,1.4-55.2c25.7,32.7,69.2,45.6,103.7,38.1c28-6.1,60.6-28.7,66-63.8l1.2-7.8c0,0,8.8,2.3,9.4,2.4
			c17.8,3.2,43.5,2.4,57.5-10c4.4-4,7.5-8.7,9.1-14l2.1-7l6.9,2.3c15.4,5,31.5,3.7,46.5-3.7c9.6-4.7,17.5-11.2,23.5-19.3l4.9-6.5
			l5.8,5.6c5.5,5.3,10.6,9,16.1,11.5c23.1,10.8,51.1,6.2,71.2-11.6c7-6.2,14.4-17.4,20.8-31.4l3.7-8.1l7.6,5.9l4.1,3.1
			c7.9,4.6,21.1,6.8,38.9-9.1c13.3-11.8,24.6-28.6,33.7-50l4.4-10.3l7.5,8.2c4.5,5,8.8,8.8,13.3,11.9c21.5,14.6,50.4,18.6,71.8,10
			c6.5-2.6,12.4-6.1,17.7-10.7l4.2-3.5l4.5,3.1c11.5,7.9,25.9,13.7,44,17.7c18.5,4.1,27.8-4.6,31.6-10.1c6.6-9.4,6.3-22.7-0.7-33.9
			c-6.5-10.4-3.4-22,3.1-43.2c4.6-14.8,9.7-31.5,11-51.4c3.9-59.4-19.5-89.5-39.8-104.3c-33.6-24.5-76.3-20.9-102.7-10.5
			c0,0-5.8,2.7-5.8,2.7l-9.2,4.6l-2.9-7.1c-3.2-7.7-8.2-14.2-14.8-19.4c-14.2-11.1-34.2-14.5-59.5-10.3l-4.3,0.7l-2.6-3.5
			c-42.2-57.2-75.9-46.2-85.2-41.5v0c-14.3,7.2-23.3,22-25.2,41.5c-0.2,2-0.3,4-0.3,6.2c0,5.8,0.7,12.4,2,20.1l1.3,7.5l-17.1,1.8
			c-11,1.1-20.5,2-26.9,3.4c-12.2,2.6-21,10.6-23.5,21.4c0,0.1-0.6,3.8-0.6,3.8c0-0.4,0,4.4,0,4.4l0,6.4l-6.3,1.3l-4.6,0.5
			c-21.7,3.7-43.1,16.8-58.3,35.9l-3.6,4.6l-5.2-2.7c-9.2-4.7-17.3-6-24.9-3.9c-9,2.5-16.1,8.3-20,16.5c-1.5,3.1-2.5,6.7-3,10.7
			l-2.1,16.6l-10.5-13.1c-8.3-10.3-17.7-18.5-28.2-24.7c-34.6-20.3-75.1-16.9-101.4-6.9c-13.3,5-35.7,12.9-54.2,35.1
			C266.5,320.7,282.8,280.2,252.4,248.1z M558.6,273.1 M0.9,389.3"/>
		<path class="st5" d="M491.1,363c16.3-52,90.1-86.7,148.7-8.1c55.4,74.2,26,168.3,0.4,191c-28.2,25.1-72.8,10.2-71.5-31.6
			c0.9-30.3,12.2-35.8,20.4-85.7c7.5-45.8-2.3-87.7-44.2-75.6c-27.1,7.8-31.7,44.2-13.6,91.2c21.2,55.1,28.5,100.9-8,119
			c-30.1,15-62.2-5.3-64.7-52.7c-3-57,10.3-109.8-3.5-142.4c-4.2-10-4.7-22.1,5.4-24.9C470,340.7,483.6,354.7,491.1,363
			 M457.6,580.5c-0.6-9.2-28.2-17.4-26.2-73.6c0.8-20.7,0.7-49.8-3.6-78.5c-14.5-98.7-91.7-101.3-130.6-86.6
			c-28,10.6-47.4,33.9-53.3,46.3c-6.2,12.9-2.7,26.1,12.9,18.6c14.6-7.2,35.6-11,47.4,2.3c11,12.4,11.4,28.7,13.7,44.4
			c-8.1,1.6-31.8,9.1-40,14.6c-35.9,23.6-79.2,72.6-46.5,140.7c15.9,33.2,53.3,64.4,98.1,54.6c24.4-5.3,55.9-27.5,50.2-62.1
			c-4.6-27.9-46.6-26.5-69.6-27.9c-49.1-3-36.5-48-20.1-64.6c21.3-21.5,47.1-5.3,54.2,14.5c13.1,36.2,26.4,63.1,69.7,70.8
			C433.4,597.4,458.5,594.3,457.6,580.5z M231.6,443.4c-9.9-18.7-46.1-8.3-82.6,11.6c-9.1-17.5-18.6-43-18.6-43
			s62.6-30.4,103.9-92.5c44.6-67.2-31.4-87.5-91.1-59.2c-40.7,19.3-118.7,68.6-122.1,135c-6.3,124,49.3,238.6,111.1,295.6
			c57.1,52.7,73.7,44.2,73.3-6.1c-0.3-58.9-11.4-114.2-24.9-156C213.2,500.8,241.4,461.8,231.6,443.4 M840.2,263.9
			c-18.5,7.3-30.5,18.3-38.6,28.8c-6.6,8.5,0.3,17,8.5,15c18.6-4.5,48.5-4.3,53.2,32.7c-62.9,2-87.7,34.8-87.8,77.3
			c-0.2,49.4,51,65.1,76.5,54.9c12.1-4.9,19.6-11.1,21.1-23.5c3.2-26.1-29.2-25.9-36.5-28.4c-25-8.8-16.9-37.8-1-45.8
			c14-7.1,33.6,1.2,35.9,22.6c4.4,40.7,4.3,67.7,62.9,80.6c14,3.1,12.6-7.3,9.1-12.9c-19.2-30.5,8.1-61.3,11.1-106.9
			C961,260.2,885,246.1,840.2,263.9 M798.2,264.7c0.5-14.7-12.8-42.4-71.1-25.5c-55.6-89.3-104.7-51.5-74.7,23.6
			c-15.3,4.6-52.8,6.2-66.1,8.9c-12.1,2.6-9.2,13.8,1,21.9c18.9,15.1,67,20.3,85.7,22.2c26.6,66,33.6,145.9,26,182.3
			c-4.3,20.7,6.1,17.1,16.3,8.1c45.4-40.4,54.2-135.6,41.5-199.9C790.9,292.3,797.9,277.3,798.2,264.7"/>
		<g>
			<path class="st0" d="M947.6,439c0.1-13.4,10.9-24.2,24.3-24.1c13.4,0,24.2,10.9,24.2,24.3c0,13.4-10.9,24.2-24.3,24.1
				C958.4,463.2,947.6,452.3,947.6,439z"/>
			<path class="st5" d="M971.3,424.4c8.6-0.5,15.6,5.8,16.1,14.1c0.5,8.5-5.8,15.4-14.4,16c-8.6,0.5-15.8-5.7-16.3-14.2
				C956.2,432,962.7,425,971.3,424.4L971.3,424.4z M971.3,427.5c-6.6,0.4-11.2,6-10.8,12.6c0.3,6.6,5.6,11.7,12.4,11.3
				c6.6-0.3,11.1-5.9,10.7-12.6c-0.4-6.6-5.6-11.7-12.2-11.3H971.3z M970.2,447.3l-3.4,0.2l-0.9-14.9c1.3-0.3,3.2-0.7,5.7-0.9
				c2.8-0.2,4.2,0.2,5.3,0.9c0.8,0.6,1.6,1.7,1.6,3.1c0.1,1.7-1.1,3.1-2.9,3.7l0,0.2c1.5,0.4,2.4,1.5,2.9,3.5
				c0.6,2.3,0.9,3.2,1.3,3.6l-3.7,0.2c-0.5-0.5-0.8-1.7-1.4-3.4c-0.4-1.6-1.3-2.3-3.3-2.2l-1.6,0.1L970.2,447.3z M969.8,438.9
				l1.7-0.1c1.9-0.1,3.4-0.8,3.3-2.4c-0.1-1.4-1.1-2.2-3.3-2.1c-0.9,0.1-1.5,0.2-1.9,0.3L969.8,438.9z"/>
		</g>
	</g>
</g>
</svg>
